<svg xmlns="http://www.w3.org/2000/svg" id="Layer_2" data-name="Layer 2" viewBox="0 0 1876.55 798.14"><defs><style>      .cls-1 {        fill: #ff5733;      }      .cls-2 {        fill: #0866ff;      }    </style></defs><g id="Layer_1-2" data-name="Layer 1"><g><rect class="cls-2" x="967.68" y="159.17" width="79.32" height="408.99"></rect><path class="cls-2" d="M1848.07,365.97c-1.84-2.05-2.95-4.75-2.95-7.71v-.98c0-2.3.76-4.51,1.99-6.46.03-.06.07-.11.11-.17,0-.01,0-.03.01-.04.18-.28.35-.55.5-.83.32-.58.6-1.18.83-1.8.06-.15.11-.3.17-.47.06-.15.11-.32.15-.47.04-.15.1-.29.12-.44.04-.15.08-.29.11-.44.01-.06.03-.11.04-.15v-.04c.03-.14.06-.28.08-.42.04-.15.07-.32.08-.47h0c.06-.35.08-.69.11-1.04.03-.35.04-.69.04-1.05s-.01-.71-.04-1.05c-.01-.18-.03-.36-.06-.53-.01-.17-.04-.33-.06-.51-.07-.46-.15-.9-.26-1.34-.17-.65-.37-1.29-.62-1.91-.68-1.63-1.65-3.11-2.84-4.36l-.46-.46c-.21-.21-.43-.4-.66-.58-.1-.08-.21-.17-.32-.25-.18-.15-.37-.29-.57-.42-.15-.11-.3-.21-.46-.32-.19-.12-.39-.24-.6-.33-.19-.11-.37-.22-.57-.3-.19-.1-.39-.19-.58-.28-.01-.01-.04-.01-.06-.03-.18-.07-.36-.15-.54-.22-.21-.08-.42-.15-.62-.21-.18-.07-.36-.12-.54-.17-.25-.07-.48-.14-.73-.18-.21-.04-.43-.08-.65-.12-.22-.04-.44-.07-.66-.08-.22-.03-.44-.04-.68-.06-.22-.03-.44-.03-.68-.03s-.46,0-.68.03c-.22.01-.46.03-.68.06-.22.01-.44.04-.66.08-.21.04-.43.08-.65.12-.19.04-.37.08-.57.14-.04.01-.1.03-.14.04-.19.04-.37.1-.55.17-.21.06-.42.14-.62.21-.19.08-.4.17-.6.25-.21.08-.4.18-.6.28-.18.08-.37.19-.55.29-.57.3-1.11.66-1.63,1.08-.1.08-.21.17-.32.25-.22.18-.44.37-.66.58l-.46.46c-1.19,1.25-2.16,2.73-2.84,4.36-.25.62-.46,1.26-.62,1.91-.11.44-.19.89-.26,1.34-.01.18-.04.35-.06.51-.03.17-.04.35-.06.53-.03.35-.04.69-.04,1.05s.01.71.04,1.05c.03.35.06.69.11,1.04.04.3.1.61.17.91.01.06.03.12.04.18.07.3.14.6.24.89h0c.1.32.21.64.32.94.24.62.51,1.22.83,1.79.15.29.32.57.5.84.01.03.03.04.04.07,1.29,1.99,2.09,4.25,2.09,6.62v.95c0,2.96-1.12,5.66-2.95,7.71-2.12,2.37-5.19,3.85-8.61,3.85h-20.07v.06c-.06.97-.12,1.94-.19,2.91-.15,1.95-.36,3.9-.6,5.84-.11.83-.22,1.66-.35,2.49-.07.48-.14.95-.22,1.44-.11.79-.25,1.58-.39,2.35-.14.82-.29,1.62-.46,2.42-.18.93-.37,1.84-.58,2.75-.19.89-.4,1.77-.61,2.64-.03.11-.06.21-.08.3-.18.76-.39,1.52-.58,2.27-.06.21-.11.42-.17.61-.24.84-.47,1.67-.72,2.5-.26.91-.55,1.83-.84,2.73-.36,1.13-.73,2.26-1.15,3.36-.22.68-.46,1.34-.72,2.01-.25.71-.53,1.4-.79,2.09-.26.66-.54,1.33-.82,1.99-1.66,4-3.52,7.9-5.58,11.68-.46.86-.93,1.7-1.43,2.55-.43.76-.87,1.52-1.33,2.27-.26.44-.54.89-.82,1.33-1.49,2.44-3.07,4.8-4.75,7.1-.37.53-.76,1.05-1.15,1.58-.12.18-.26.36-.4.53-.44.62-.91,1.22-1.4,1.83-.12.18-.25.35-.4.51-.4.53-.8,1.04-1.22,1.54-1.01,1.25-2.05,2.46-3.11,3.65-.5.6-1.02,1.18-1.56,1.76-2.5,2.75-5.13,5.37-7.87,7.87-.68.62-1.37,1.25-2.06,1.84-.72.65-1.45,1.27-2.2,1.88-.48.42-1,.83-1.49,1.23-.58.48-1.16.94-1.76,1.4-.58.47-1.18.93-1.79,1.37-.6.46-1.2.9-1.81,1.33-.5.37-1,.72-1.49,1.07-.61.44-1.23.87-1.85,1.29-.76.51-1.52,1.01-2.28,1.49-.53.36-1.05.69-1.59,1.01-.53.33-1.05.65-1.58.97-1.56.95-3.14,1.85-4.75,2.71-.69.37-1.38.75-2.09,1.11-1.41.75-2.82,1.45-4.26,2.1-.58.29-1.16.55-1.76.82-1.63.75-3.29,1.45-4.97,2.12-.83.33-1.66.66-2.5.97-.06.04-.12.06-.19.07-.62.25-1.25.47-1.88.69-1.13.42-2.28.8-3.43,1.16-.9.3-1.81.58-2.73.84-.89.26-1.77.53-2.67.76-.07.03-.14.04-.21.06-.89.25-1.76.47-2.66.69-.84.21-1.69.42-2.55.61s-1.72.37-2.57.54c-.65.14-1.31.26-1.99.39-4.25.8-8.59,1.37-12.98,1.72-.78.06-1.54.11-2.31.15-.22.01-.43.03-.65.04v.19h-12.33v-.12c-.07,0-.12,0-.19-.01-.93-.03-1.87-.08-2.8-.15-1-.06-1.99-.14-2.98-.24-.98-.08-1.97-.18-2.95-.3-.84-.08-1.69-.19-2.52-.3-.42-.06-.82-.12-1.23-.18-.5-.07-.98-.14-1.47-.22-.46-.07-.91-.14-1.36-.24-.68-.1-1.36-.21-2.02-.35-.12-.01-.25-.04-.37-.08-.86-.14-1.7-.3-2.53-.5-.06-.01-.12-.03-.21-.04-.91-.18-1.81-.39-2.71-.61-.91-.21-1.81-.43-2.71-.66-4.69-1.23-9.29-2.73-13.76-4.47-.89-.33-1.76-.69-2.64-1.07-.6-.24-1.19-.5-1.79-.76-1.22-.53-2.42-1.07-3.61-1.65-.55-.25-1.11-.53-1.66-.8-1.23-.6-2.46-1.23-3.68-1.9-.47-.24-.94-.5-1.41-.76-1.12-.61-2.23-1.25-3.34-1.91-.58-.33-1.16-.68-1.73-1.04-2.01-1.23-3.99-2.52-5.92-3.88-.51-.35-1.01-.71-1.51-1.07-.76-.54-1.52-1.09-2.27-1.67-.75-.55-1.49-1.13-2.23-1.72-2.2-1.73-4.35-3.54-6.42-5.43-1.38-1.25-2.75-2.53-4.08-3.86-.62-.6-1.23-1.22-1.83-1.84-.06-.07-.12-.12-.19-.19-.64-.66-1.27-1.33-1.88-2.01-.6-.64-1.18-1.27-1.74-1.92-.08-.1-.17-.19-.26-.29-1.19-1.34-2.35-2.71-3.47-4.11-.01-.04-.04-.07-.08-.11-.58-.71-1.13-1.43-1.67-2.15-1.13-1.47-2.24-2.98-3.31-4.5-1.09-1.55-2.15-3.11-3.16-4.72-2.02-3.17-3.89-6.44-5.62-9.8-.44-.84-.87-1.69-1.26-2.53-.43-.84-.84-1.7-1.22-2.57-1.18-2.57-2.28-5.22-3.28-7.89-.36-.89-.68-1.79-.98-2.68-.62-1.81-1.22-3.63-1.77-5.47-.35-1.15-.66-2.31-.98-3.47-.54-2.03-1.04-4.1-1.48-6.17-.17-.78-.32-1.56-.47-2.34-.46-2.35-.84-4.73-1.16-7.13-.42-3.2-.72-6.42-.9-9.7h-.01c-.12-2.27-.19-4.57-.19-6.86,0-1.83.04-3.65.12-5.47h.01c.17-4.03.54-8,1.08-11.92.12-.98.28-1.97.44-2.93.15-.98.32-1.95.51-2.91.17-.97.36-1.92.58-2.88.42-1.91.86-3.81,1.36-5.69.5-1.87,1.02-3.74,1.61-5.58.28-.93.58-1.84.9-2.75.62-1.81,1.29-3.63,1.98-5.41.01-.04.04-.07.04-.11.79-1.98,1.62-3.93,2.49-5.85.29-.65.6-1.29.9-1.92.26-.6.55-1.19.86-1.77.55-1.15,1.13-2.28,1.74-3.39.35-.68.72-1.36,1.09-2.02.39-.69.79-1.38,1.19-2.06.29-.51.6-1.01.89-1.51.17-.29.35-.57.53-.84.32-.54.65-1.09,1.01-1.62.18-.3.37-.62.58-.91.35-.55.72-1.11,1.09-1.65.12-.22.28-.43.42-.64.36-.54.73-1.07,1.11-1.59.35-.53.72-1.04,1.09-1.54.53-.73,1.07-1.47,1.62-2.19.46-.62.94-1.23,1.41-1.84.58-.73,1.16-1.45,1.76-2.17.64-.78,1.27-1.54,1.94-2.28,1.95-2.27,3.99-4.46,6.1-6.56.66-.66,1.34-1.33,2.02-1.99,1.02-.97,2.05-1.91,3.09-2.82.48-.46.97-.87,1.45-1.29.9-.79,1.81-1.55,2.74-2.3.61-.53,1.23-1.02,1.87-1.51.98-.78,1.99-1.54,3-2.28.53-.39,1.05-.78,1.58-1.15.94-.68,1.9-1.34,2.86-1.98.69-.48,1.4-.94,2.1-1.38,1.47-.95,2.96-1.87,4.48-2.75.53-.32,1.05-.62,1.58-.91.18-.1.36-.21.54-.3.71-.4,1.43-.8,2.16-1.18,1.54-.83,3.1-1.62,4.68-2.38.43-.21.87-.42,1.3-.61.58-.28,1.16-.55,1.76-.8.87-.4,1.76-.78,2.63-1.15,2.06-.86,4.14-1.66,6.26-2.42,1.51-.55,3.03-1.07,4.58-1.54,1.84-.58,3.7-1.11,5.58-1.61,1.8-.47,3.61-.9,5.44-1.3.15-.03.29-.06.44-.1,1.85-.39,3.71-.73,5.59-1.04.97-.18,1.95-.33,2.93-.44,3.92-.54,7.89-.91,11.92-1.08h0v-3.24c0-6.78-5.78-11.89-12.54-11.5h-.14c-.61.04-1.22.06-1.83.06-.94,0-1.87-.04-2.8-.14-.3-.03-.61-.07-.91-.11-.4-.06-.8-.12-1.2-.19h-.04c-1.05-.21-2.08-.46-3.07-.76-.03-.01-.06-.03-.07-.03-.5-.15-1-.32-1.47-.51-.44-.15-.86-.33-1.27-.51-.1-.04-.18-.08-.26-.12-.46-.21-.89-.42-1.33-.65-.55-.29-1.09-.6-1.62-.93-.53-.32-1.04-.66-1.54-1.02-.4-.29-.8-.6-1.19-.91-.36-.28-.71-.58-1.04-.9-.04-.03-.07-.06-.1-.08-.29-.26-.58-.54-.86-.82-.26-.26-.51-.53-.76-.8-.19-.21-.37-.42-.55-.62-.94-1.09-1.79-2.26-2.5-3.5-.19-.3-.36-.61-.53-.91-.93-1.69-1.65-3.52-2.15-5.43-.06-.24-.12-.47-.17-.72-.06-.18-.1-.37-.12-.57-.07-.29-.12-.58-.17-.89-.07-.39-.12-.78-.17-1.18-.03-.26-.06-.51-.07-.78-.03-.21-.04-.43-.06-.64-.03-.47-.04-.94-.04-1.41s.01-.94.04-1.41c.01-.21.03-.43.06-.64.01-.26.04-.51.07-.78.04-.4.1-.79.17-1.18.04-.3.1-.6.17-.89.03-.19.07-.39.12-.57.04-.25.11-.48.17-.72.5-1.91,1.22-3.74,2.15-5.43.17-.3.33-.61.53-.91.72-1.25,1.56-2.41,2.5-3.5.18-.21.36-.42.55-.62.25-.28.5-.54.76-.8.28-.28.57-.55.86-.82.03-.03.06-.06.1-.08.33-.32.68-.62,1.04-.9.39-.32.79-.62,1.19-.91.5-.36,1.01-.71,1.54-1.02.53-.33,1.07-.64,1.62-.93.44-.24.87-.44,1.33-.65.08-.04.17-.08.26-.12.42-.18.83-.36,1.27-.51.47-.19.97-.36,1.47-.51.01,0,.04-.01.07-.03,1-.3,2.02-.55,3.07-.76h.04c.4-.07.8-.14,1.2-.19.3-.04.61-.08.91-.11.93-.1,1.85-.14,2.8-.14.61,0,1.22.01,1.83.06h.14c6.75.39,12.54-4.72,12.54-11.5v-3h-.12c-.94.03-1.9.07-2.84.11-.98.04-1.97.1-2.95.15-.72.04-1.43.08-2.15.12-.61.06-1.2.1-1.81.14-.76.06-1.52.12-2.28.19-.86.07-1.73.15-2.59.24-.95.1-1.91.21-2.86.32s-1.92.24-2.89.36c-.95.12-1.92.25-2.88.39-.95.14-1.91.29-2.86.44-.94.14-1.87.3-2.8.46-.97.17-1.94.35-2.89.53s-1.9.36-2.84.55c-2.81.57-5.6,1.2-8.39,1.9-.93.22-1.85.46-2.77.71-.57.15-1.15.3-1.73.46-.72.19-1.45.4-2.17.61-.53.15-1.05.3-1.59.46-.9.26-1.81.54-2.71.82-1.81.55-3.61,1.13-5.4,1.74-1.55.53-3.09,1.07-4.62,1.63-.73.26-1.47.54-2.19.82-3.94,1.49-7.83,3.1-11.67,4.83-1.66.76-3.31,1.54-4.94,2.33-11.02,5.34-21.48,11.64-31.28,18.78-1.29.94-2.56,1.9-3.83,2.86-2.39,1.83-4.73,3.71-7.03,5.63-.65.54-1.29,1.08-1.92,1.63-2.86,2.46-5.65,5-8.37,7.6-.64.62-1.27,1.23-1.9,1.85-.64.61-1.26,1.23-1.88,1.87-.65.65-1.3,1.31-1.94,1.98-1.92,1.99-3.81,4.03-5.65,6.1l-1.83,2.08c-1.81,2.1-3.57,4.23-5.3,6.39-.58.73-1.15,1.45-1.72,2.19-.95,1.25-1.91,2.49-2.84,3.75-.91,1.22-1.8,2.45-2.67,3.7-.07.1-.14.19-.21.29-.72,1.01-1.43,2.03-2.12,3.07-.25.37-.5.75-.75,1.12-.78,1.15-1.52,2.31-2.27,3.47-.79,1.23-1.55,2.46-2.31,3.71-.84,1.41-1.69,2.82-2.5,4.25-.22.36-.43.73-.62,1.11-1.38,2.42-2.7,4.87-3.97,7.35-.04.08-.08.15-.12.24-1.22,2.38-2.39,4.8-3.53,7.24-.39.84-.78,1.69-1.15,2.53-.37.84-.75,1.69-1.12,2.55-.36.84-.72,1.7-1.08,2.56s-.71,1.72-1.05,2.59c-.35.86-.68,1.73-1.01,2.6s-.66,1.74-.98,2.62c-.3.82-.6,1.65-.89,2.46-.12.35-.25.69-.37,1.05-.51,1.47-1,2.95-1.48,4.44-.53,1.62-1.02,3.27-1.51,4.91-.91,3.16-1.77,6.34-2.53,9.55-.35,1.43-.68,2.86-1,4.3-.22,1.02-.44,2.06-.65,3.11-.19.93-.37,1.87-.54,2.8-.21,1.11-.4,2.2-.6,3.31-.29,1.72-.55,3.45-.8,5.18-.14.94-.28,1.9-.39,2.85-.37,2.86-.69,5.74-.93,8.64-.1.97-.17,1.92-.24,2.89-.08,1.09-.15,2.2-.21,3.31-.06.84-.1,1.67-.12,2.52-.04.94-.08,1.87-.11,2.81v.12c-.07,2.05-.1,4.11-.1,6.17s.03,4.11.1,6.16v.04c.03.97.07,1.92.11,2.89.03.86.07,1.72.12,2.56.06,1.09.12,2.19.21,3.28.07.97.15,1.94.24,2.89.24,2.89.55,5.77.93,8.64.11.95.25,1.91.39,2.85.12.95.28,1.9.43,2.84.11.75.24,1.48.36,2.23.1.58.19,1.18.3,1.76.1.55.19,1.11.3,1.66.17.89.33,1.79.51,2.67.55,2.74,1.16,5.47,1.83,8.18.17.69.33,1.38.51,2.08.24.94.48,1.88.75,2.82.22.82.44,1.63.68,2.44.17.61.35,1.22.51,1.81.21.66.4,1.33.61,1.99.25.82.5,1.63.76,2.45.1.33.21.65.3.97.42,1.25.82,2.48,1.25,3.7.12.36.25.71.37,1.05.29.83.58,1.65.89,2.46.32.89.65,1.76.98,2.62.33.87.66,1.74,1.01,2.6.35.87.69,1.73,1.05,2.59s.72,1.72,1.08,2.56c.37.86.75,1.7,1.12,2.55.37.84.76,1.69,1.15,2.53,1.13,2.44,2.31,4.86,3.53,7.24.04.08.08.15.12.24,1.3,2.53,2.64,5.02,4.04,7.49.83,1.45,1.67,2.91,2.53,4.33.6,1.01,1.22,2.01,1.83,2.99.24.37.47.75.71,1.12.75,1.18,1.49,2.34,2.27,3.5.8,1.22,1.62,2.42,2.44,3.61.04.03.06.07.08.11.86,1.23,1.73,2.45,2.6,3.65.06.08.12.17.17.24.83,1.13,1.67,2.26,2.52,3.36h-201.95c-.89,0-1.76-.01-2.63-.03-.08,0-.18,0-.26-.01-.42,0-.82-.01-1.22-.04-1.51-.04-3-.11-4.48-.22-.48-.01-.97-.06-1.45-.1-.65-.04-1.3-.11-1.95-.17-.71-.07-1.41-.14-2.12-.24-.11,0-.24-.01-.35-.04-.69-.07-1.38-.15-2.06-.25-.82-.11-1.62-.22-2.44-.35-2.05-.3-4.1-.68-6.12-1.09-.75-.15-1.48-.3-2.21-.47-.65-.15-1.3-.29-1.94-.46-1.01-.24-2.01-.48-3-.76-.07-.01-.14-.04-.21-.06-.12-.04-.25-.07-.37-.11-1.08-.28-2.15-.58-3.21-.91-.44-.12-.9-.26-1.34-.42-.19-.06-.37-.11-.55-.18-.66-.21-1.33-.42-1.99-.65-.98-.33-1.97-.68-2.93-1.02-.82-.3-1.62-.61-2.44-.93-.11-.04-.24-.08-.35-.14-.94-.37-1.88-.75-2.81-1.15-.87-.36-1.74-.75-2.6-1.13-.06-.03-.11-.06-.17-.08-.78-.33-1.52-.68-2.27-1.05-.06-.03-.11-.06-.17-.08-.06-.03-.12-.06-.18-.08-.11-.06-.22-.1-.33-.15-.84-.4-1.67-.82-2.5-1.25-.89-.46-1.77-.93-2.66-1.41-.89-.47-1.76-.95-2.63-1.47-.82-.47-1.63-.94-2.45-1.44-.12-.07-.25-.15-.39-.24-1.62-1-3.22-2.02-4.79-3.09-.82-.54-1.63-1.11-2.44-1.67-.01-.01-.03-.03-.04-.04-1.62-1.15-3.21-2.34-4.77-3.57-.79-.61-1.56-1.23-2.34-1.88-.76-.62-1.52-1.26-2.27-1.92-.76-.64-1.51-1.3-2.24-1.98-.55-.51-1.11-1.01-1.65-1.54-.28-.25-.54-.51-.82-.78-.26-.25-.54-.53-.8-.79-.36-.33-.71-.66-1.05-1.02-.36-.35-.72-.72-1.07-1.08-.08-.1-.18-.18-.26-.28-.42-.42-.82-.83-1.2-1.26-.07-.07-.14-.14-.21-.21-.04-.06-.1-.11-.15-.17-.14-.15-.29-.3-.43-.46-.08-.08-.17-.17-.24-.26-.37-.4-.75-.8-1.09-1.22-.15-.14-.28-.29-.42-.44-1.01-1.13-1.99-2.28-2.96-3.46-1.91-2.31-3.74-4.69-5.47-7.13-.61-.86-1.19-1.72-1.77-2.57-.04-.07-.1-.14-.14-.21-.01-.03-.03-.04-.06-.07-.46-.66-.89-1.34-1.33-2.02-.35-.55-.69-1.11-1.04-1.66-.55-.87-1.08-1.76-1.61-2.66-.06-.1-.12-.19-.18-.3-.29-.5-.58-1-.84-1.49-.03-.06-.07-.11-.1-.17-.3-.51-.6-1.04-.87-1.56-.97-1.76-1.88-3.56-2.75-5.37-.44-.91-.86-1.83-1.27-2.74-.29-.64-.57-1.29-.84-1.94-.17-.35-.32-.69-.46-1.05-.14-.35-.29-.71-.43-1.05-.08-.18-.17-.37-.24-.55-.21-.51-.42-1.01-.61-1.52-.3-.76-.6-1.52-.87-2.3-.36-.95-.69-1.91-1.01-2.88-.22-.65-.44-1.3-.65-1.97-.03-.07-.04-.14-.07-.21-.03-.08-.06-.18-.08-.26-.11-.37-.24-.75-.35-1.13-.15-.46-.29-.93-.42-1.4-.06-.14-.1-.28-.12-.42-.12-.42-.24-.82-.35-1.23-.19-.66-.37-1.34-.54-2.01-.03-.07-.04-.14-.06-.19-.28-1.07-.53-2.13-.77-3.2-.15-.71-.3-1.41-.46-2.12-.1-.43-.19-.86-.26-1.3-.35-1.66-.65-3.34-.9-5.04-.17-.94-.3-1.9-.42-2.86-.08-.51-.14-1.02-.21-1.54,0-.04-.01-.1-.01-.14s-.01-.08-.01-.12c-.01-.12-.03-.25-.04-.37-.08-.71-.17-1.44-.24-2.16-.08-.8-.15-1.61-.21-2.42-.04-.46-.08-.9-.1-1.36-.01-.14-.03-.28-.03-.42-.04-.48-.07-.97-.08-1.45-.01-.22-.03-.43-.03-.65-.04-.71-.07-1.41-.08-2.12-.01-.4-.03-.82-.04-1.22-.03-.87-.03-1.74-.03-2.62v-.98c0-.48.01-.98.03-1.47,0-.37.01-.76.03-1.13.01-.94.06-1.88.11-2.82.03-.76.08-1.52.14-2.28v-.07c0-.08.01-.18.03-.26.03-.47.06-.95.11-1.43,0-.07,0-.14.01-.21.08-1.01.18-2.02.29-3.02.06-.51.12-1.04.18-1.56s.12-1.04.21-1.55c.12-1,.28-2.01.44-2.99.01-.1.03-.18.04-.26.01-.04.01-.1.03-.14.14-.93.29-1.85.48-2.77,10.93-57.74,62.33-101.14,123.1-101.5h.22c.19-.01.36-.01.55-.01h102v-79.31h0s-99.98-.01-99.98-.01c-.94-.01-1.88-.03-2.83-.03s-1.89.01-2.83.03h-.7c-.14,0-.29,0-.43.01h-.11c-.62.01-1.23.03-1.84.04-1.15.03-2.28.07-3.42.12-.66.03-1.33.06-1.98.1-3.22.18-6.42.43-9.6.75-1.26.12-2.53.28-3.79.43-1.3.15-2.6.32-3.9.5-.08.01-.18.03-.26.04-1.25.18-2.49.36-3.74.57-1.51.24-3.02.5-4.51.78-1.36.25-2.73.51-4.08.79h-.01c-1.34.28-2.68.57-4.03.87-.94.21-1.88.43-2.82.66-.21.04-.4.08-.6.14-.57.14-1.13.28-1.7.43-.83.19-1.65.42-2.46.64-1.52.4-3.04.82-4.54,1.26-1.16.33-2.31.69-3.46,1.04-.26.08-.53.17-.78.25-1.15.36-2.3.73-3.43,1.12-.94.3-1.9.64-2.82.97-.04,0-.08.01-.11.04-.76.26-1.52.54-2.27.82-1.79.65-3.57,1.33-5.33,2.02-.53.21-1.05.43-1.58.64-6.21,2.53-12.28,5.36-18.16,8.47-1.01.53-2.02,1.07-3.02,1.62-5.66,3.11-11.17,6.49-16.5,10.1-.48.33-.97.66-1.45,1-2.06,1.44-4.1,2.89-6.1,4.4-.94.71-1.87,1.41-2.8,2.13-.01,0-.01.01-.03.01h-.01c-4.89,3.81-9.6,7.81-14.12,12.01-.46.42-.91.84-1.36,1.27-.55.53-1.11,1.05-1.65,1.58-.77.75-1.54,1.49-2.3,2.26-.01.01-.01.03-.03.03-.76.76-1.51,1.52-2.26,2.3-.75.78-1.49,1.56-2.23,2.35-2.23,2.35-4.39,4.77-6.49,7.24-2.1,2.46-4.14,4.98-6.12,7.54-1.02,1.33-2.03,2.66-3.03,4-1,1.36-1.97,2.71-2.93,4.08-.95,1.37-1.9,2.75-2.84,4.15h0c-.93,1.41-1.83,2.82-2.73,4.23-.89,1.43-1.77,2.85-2.63,4.3-.79,1.33-1.56,2.67-2.34,4.01-.12.25-.26.48-.4.72-.75,1.34-1.48,2.7-2.21,4.07-.04.1-.1.18-.15.28-.69,1.34-1.4,2.7-2.08,4.06-.78,1.56-1.54,3.14-2.28,4.73-.36.76-.72,1.54-1.07,2.31,0,.01-.01.03-.03.04-.68,1.52-1.36,3.06-2.01,4.61-.64,1.51-1.26,3.03-1.87,4.57-.01.06-.03.1-.06.15-.3.79-.61,1.58-.91,2.38-.66,1.74-1.31,3.5-1.92,5.29-.22.64-.44,1.29-.66,1.94-.28.8-.54,1.62-.8,2.44-.26.82-.51,1.62-.77,2.45-.25.82-.5,1.63-.73,2.45-.48,1.65-.95,3.31-1.4,4.97h-.01v.03h.01c-.4,1.54-.8,3.06-1.18,4.58-.37,1.54-.72,3.07-1.07,4.62-.04.19-.08.4-.12.6-.21,1.01-.43,2.01-.62,3.03-.19.93-.37,1.87-.54,2.81-.37,2.03-.72,4.07-1.04,6.12-.11.78-.22,1.54-.33,2.3-.03.18-.06.35-.07.51-.11.76-.21,1.52-.3,2.3-.11.84-.22,1.7-.32,2.56-.19,1.72-.37,3.43-.51,5.16-.07.72-.14,1.45-.19,2.19-.21,2.78-.37,5.58-.47,8.39-.03.68-.06,1.36-.07,2.03-.03.83-.04,1.66-.06,2.49-.01,1.05-.03,2.12-.03,3.18v.03h0c0,1.09.01,2.17.03,3.25.01.86.03,1.72.06,2.56.01.61.03,1.22.06,1.83.11,2.89.28,5.76.5,8.62.06.69.11,1.38.18,2.08.22,2.59.5,5.16.83,7.72.08.68.17,1.36.26,2.02.04.33.1.66.14,1,.1.66.19,1.33.29,1.98.3,1.95.62,3.88.97,5.8.21,1.08.4,2.16.62,3.22.21,1.08.44,2.16.66,3.22.71,3.22,1.48,6.42,2.32,9.58v.03h0c.43,1.65.89,3.27,1.36,4.87.48,1.61.97,3.21,1.48,4.8.48,1.52.98,3.02,1.51,4.51.3.87.61,1.74.93,2.6.24.66.47,1.31.72,1.97.35.9.69,1.81,1.04,2.71.3.78.61,1.55.93,2.33.3.76.62,1.54.94,2.3.65,1.54,1.3,3.04,1.98,4.57,1.02,2.26,2.08,4.5,3.17,6.73.73,1.48,1.48,2.95,2.24,4.41.76,1.45,1.55,2.91,2.34,4.35.8,1.44,1.62,2.86,2.45,4.29.83,1.41,1.67,2.82,2.55,4.22.65,1.05,1.31,2.09,1.97,3.13,1,1.55,2.02,3.09,3.06,4.61,1.04,1.51,2.1,3.02,3.18,4.51.97,1.33,1.94,2.64,2.93,3.94.64.84,1.29,1.69,1.94,2.52.04.04.08.1.11.14,1.38,1.76,2.8,3.49,4.23,5.2.72.86,1.44,1.7,2.17,2.55.73.84,1.48,1.67,2.23,2.5.75.83,1.49,1.66,2.26,2.48s1.52,1.63,2.3,2.44,1.55,1.61,2.34,2.39c1.58,1.59,3.17,3.16,4.8,4.69,4.53,4.29,9.26,8.37,14.19,12.23.35.29.71.57,1.07.84h.01c.24.19.47.37.71.55.71.54,1.41,1.08,2.12,1.59.53.4,1.05.79,1.59,1.19,4.18,3.06,8.47,5.96,12.88,8.71.94.58,1.88,1.16,2.82,1.72,2.49,1.51,5.02,2.95,7.58,4.35,1.05.55,2.09,1.12,3.16,1.66,1.31.71,2.66,1.37,4,2.03,1.23.61,2.48,1.2,3.74,1.8.06.03.11.04.17.08,1.19.55,2.39,1.09,3.61,1.63,1.26.57,2.53,1.11,3.82,1.65,1.05.44,2.12.89,3.2,1.31,1.07.43,2.15.84,3.22,1.25.75.29,1.49.57,2.26.84,1.18.43,2.35.86,3.54,1.26,1.13.4,2.28.79,3.43,1.16.04.01.08.01.12.04,1.29.42,2.57.82,3.88,1.2,1.12.35,2.23.66,3.35.98.29.08.57.17.84.24,1.2.35,2.41.66,3.63.98,1.49.39,2.99.76,4.5,1.11,1.34.32,2.7.62,4.05.91,2.77.6,5.56,1.13,8.37,1.61,1.41.25,2.82.47,4.23.68,1.18.18,2.34.35,3.53.5.53.07,1.05.14,1.58.19,1.13.14,2.28.28,3.45.4.9.1,1.8.18,2.71.26.26.03.51.06.78.07.62.06,1.25.11,1.88.17.94.07,1.87.14,2.81.21.29.01.57.03.86.04,1.02.07,2.05.12,3.07.18.6.03,1.19.06,1.8.07.87.04,1.76.07,2.63.08.55.01,1.12.03,1.69.04,1.19.01,2.39.03,3.58.03h357.86v-.1h.08c1,.04,1.99.06,3,.07,1.02.01,2.05.03,3.09.03s2.06-.01,3.09-.03c1.01-.01,2.03-.03,3.04-.07h.08c.98-.03,1.97-.07,2.93-.11,1-.04,1.99-.1,2.98-.15,1-.06,1.98-.12,2.98-.19.75-.06,1.51-.11,2.26-.18,3.38-.28,6.73-.65,10.05-1.09,2.59-.35,5.15-.73,7.69-1.18,1.11-.19,2.2-.39,3.29-.6.95-.18,1.91-.37,2.85-.57.98-.19,1.95-.4,2.91-.61.93-.21,1.84-.42,2.75-.64.94-.22,1.88-.44,2.81-.68.94-.24,1.87-.47,2.8-.72.93-.25,1.85-.5,2.78-.76.24-.06.47-.12.71-.19,1.61-.46,3.21-.93,4.8-1.43h.01c2.41-.76,4.79-1.55,7.15-2.38.39-.14.76-.26,1.15-.42.83-.29,1.66-.6,2.49-.91.9-.33,1.79-.66,2.66-1.01.89-.35,1.77-.69,2.64-1.05,2.64-1.07,5.25-2.2,7.82-3.36,1.72-.79,3.43-1.59,5.12-2.42.65-.32,1.3-.65,1.95-.97,1.04-.53,2.06-1.05,3.09-1.59,1.61-.84,3.18-1.7,4.76-2.57.07-.04.12-.08.19-.11.82-.46,1.63-.93,2.45-1.4.82-.47,1.62-.94,2.42-1.43.8-.48,1.61-.97,2.41-1.45.8-.5,1.59-1,2.38-1.49.79-.5,1.58-1.01,2.37-1.52.89-.58,1.79-1.18,2.67-1.77,1.29-.89,2.57-1.77,3.85-2.67.22-.17.44-.33.68-.48.68-.48,1.34-.98,2.01-1.47,2.26-1.66,4.48-3.38,6.67-5.12,1.45-1.16,2.89-2.35,4.32-3.56,2.08-1.76,4.11-3.56,6.12-5.38.76-.72,1.52-1.43,2.28-2.13,1.34-1.27,2.67-2.56,3.97-3.88,1.31-1.3,2.62-2.63,3.89-3.97.64-.68,1.27-1.36,1.91-2.05,4.43-4.79,8.62-9.8,12.58-15,10.02-13.18,18.49-27.6,25.13-43,.44-1.02.87-2.06,1.3-3.1.48-1.19.95-2.37,1.43-3.57.93-2.38,1.81-4.79,2.66-7.22.32-.91.62-1.83.93-2.75.61-1.83,1.18-3.67,1.74-5.52.26-.94.54-1.87.8-2.81.66-2.35,1.3-4.72,1.88-7.11.03-.14.07-.28.1-.42.3-1.26.6-2.53.89-3.81.57-2.55,1.08-5.12,1.55-7.69.03-.18.06-.35.1-.53.19-1.12.39-2.24.57-3.36.21-1.3.4-2.6.6-3.92.18-1.3.36-2.62.51-3.93.32-2.56.58-5.13.8-7.72,0-.12.01-.24.03-.36.1-1.26.18-2.52.28-3.78-.01-.03-.01-.06,0-.08.08-1.34.15-2.68.21-4.03v-2.86h-19.86c-3.42,0-6.49-1.48-8.61-3.85Z"></path><path class="cls-2" d="M572.89,201.84c-33.7-26.1-75.81-41.91-121.54-42.67-1.16-.02-2.35-.03-3.53-.03s-2.36.02-3.53.03h-72.3V0h-78.92v484.22c-2.99.73-6.04,1.33-9.12,1.81-5.77.9-11.69,1.36-17.73,1.36-10.33,0-20.33-1.36-29.84-3.93-48.89-13.13-84.88-57.76-84.88-110.8v-134.19h84.88v-79.32h-84.88V0h-79.32v159.17H0v79.32h72.18v125.15c0,46.51,15.52,89.4,41.69,123.75,10.83,14.24,23.49,27.02,37.63,37.96,24.47,18.98,53.37,32.52,84.88,38.83,13.04,2.61,26.52,3.98,40.33,3.98,5.51,0,10.96-.22,16.37-.65v.65h78.92V238.49h83.23c.98-.02,1.96-.03,2.96-.03s1.98.02,2.96.03c61.99,1.58,111.74,52.32,111.74,114.67v215h79.44v-204.52c0-47.15-15.95-90.57-42.77-125.15-10.61-13.71-22.94-26.04-36.67-36.65Z"></path><path class="cls-2" d="M787.93,201.84c-13.72,10.61-26.05,22.94-36.67,36.65-26.82,34.59-42.77,78.01-42.77,125.15v204.52h79.44v-215c0-62.35,49.76-113.09,111.74-114.67.98-.02,1.98-.03,2.96-.03s1.98.02,2.96.03h5.39v-79.32h-1.5c-45.75.77-87.85,16.57-121.56,42.67Z"></path><path class="cls-1" d="M1833.98,238.49c-36.23-46.76-92.3-77.39-155.58-79.25v19.13c0,6.38-5.18,11.56-11.56,11.56h-.97c-2.39,0-4.67-.82-6.67-2.12-2.18-1.42-4.81-2.24-7.63-2.24-7.57,0-13.71,5.92-13.71,13.24s6.14,13.24,13.71,13.24c2.83,0,5.46-.83,7.64-2.25,2.01-1.3,4.29-2.13,6.68-2.13h.95c6.38,0,11.56,5.18,11.56,11.56v19.45c63.72,3.48,114.67,54.88,117.42,118.8h3.84c6.83,0,11.96-5.87,11.5-12.68-.04-.6-.06-1.21-.06-1.83,0-14.39,11.26-26.05,25.14-26.05s25.15,11.66,25.15,26.05c0,.61-.02,1.22-.06,1.83-.45,6.81,4.68,12.68,11.5,12.68h3.71v-2.86c-1.9-43.65-17.47-83.76-42.57-116.14Z"></path><g><path d="M104.15,633.3v33.47h26.93v12.12h-26.93v46.93c0,5.26,1.47,9.27,4.42,12.02,2.95,2.76,7.05,4.14,12.31,4.14,3.85,0,7.31-.45,10.39-1.35l.77,11.16c-4.23,1.41-8.85,2.12-13.85,2.12-7.95,0-14.52-2.43-19.72-7.31-5.19-4.87-7.79-11.28-7.79-19.23v-48.47h-15.58v-12.12h15.58v-33.47h13.46Z"></path><path d="M167.05,612.52v66.17c7.31-9.62,17.44-14.43,30.39-14.43,10,0,18.27,3.34,24.81,10,6.54,6.67,9.81,14.94,9.81,24.81v53.86h-13.46v-49.24c0-8.21-2.18-14.81-6.54-19.81-4.36-5-10.65-7.5-18.85-7.5s-14.14,2.73-18.95,8.17c-4.81,5.45-7.21,12.15-7.21,20.1v48.28h-13.46v-140.41h13.46Z"></path><path d="M308.81,664.27l-.19,13.85h-.96c-10,0-18.24,2.63-24.72,7.89-6.48,5.26-9.71,12.76-9.71,22.5v44.43h-13.46v-86.17h13.46v15c8.08-11.67,19.94-17.5,35.58-17.5Z"></path><path d="M346.7,633.49c0,2.44-.84,4.52-2.5,6.25-1.67,1.73-3.78,2.6-6.35,2.6-2.31,0-4.36-.9-6.16-2.69-1.8-1.79-2.69-3.85-2.69-6.16,0-2.43.83-4.52,2.5-6.25,1.67-1.73,3.78-2.6,6.35-2.6s4.68.84,6.35,2.5c1.67,1.67,2.5,3.78,2.5,6.35ZM344.58,666.77v86.17h-13.46v-86.17h13.46Z"></path><path d="M453.06,666.77l-40.2,86.56h-8.08l-40.2-86.56h14.23l30.01,66.36,30.01-66.36h14.23Z"></path><path d="M489.41,633.49c0,2.44-.84,4.52-2.5,6.25-1.67,1.73-3.78,2.6-6.35,2.6-2.31,0-4.36-.9-6.16-2.69-1.8-1.79-2.69-3.85-2.69-6.16,0-2.43.83-4.52,2.5-6.25,1.67-1.73,3.78-2.6,6.35-2.6s4.68.84,6.35,2.5c1.67,1.67,2.5,3.78,2.5,6.35ZM487.3,666.77v86.17h-13.46v-86.17h13.46Z"></path><path d="M596.55,699.08v53.86h-13.46v-49.24c0-8.21-2.18-14.81-6.54-19.81-4.36-5-10.65-7.5-18.85-7.5s-14.14,2.73-18.95,8.17c-4.81,5.45-7.21,12.15-7.21,20.1v48.28h-13.46v-86.17h13.46v12.12c7.31-9.74,17.44-14.62,30.39-14.62,10,0,18.27,3.34,24.81,10,6.54,6.67,9.81,14.94,9.81,24.81Z"></path><path d="M696.57,680.62v-13.85h13.46v81.75c0,14.62-4.2,26.54-12.6,35.78-8.4,9.23-19.72,13.85-33.95,13.85-15.39,0-28.21-5.32-38.47-15.96l8.27-8.85c8.33,8.33,18.4,12.5,30.2,12.5,10.51,0,18.66-3.56,24.43-10.68,5.77-7.12,8.66-16,8.66-26.64v-9.62c-8.08,10.9-19.17,16.35-33.28,16.35-12.31,0-22.86-4.49-31.64-13.46-8.79-8.97-13.18-19.62-13.18-31.93s4.39-23.14,13.18-32.12c8.78-8.97,19.33-13.46,31.64-13.46,14.1,0,25.2,5.45,33.28,16.35ZM641.27,686.1c-5.96,6.61-8.94,14.52-8.94,23.75s3.04,17.12,9.14,23.66c6.09,6.54,13.62,9.81,22.6,9.81,9.62,0,17.57-3.2,23.85-9.62,6.28-6.41,9.42-14.36,9.42-23.85s-3.17-17.79-9.52-24.14c-6.35-6.35-14.27-9.52-23.75-9.52s-16.83,3.3-22.79,9.91Z"></path><path d="M864.09,679.08l-6.73,9.23c-8.34-7.95-17.82-11.93-28.47-11.93-9.23,0-17.06,3.27-23.47,9.81-6.41,6.54-9.62,14.43-9.62,23.66s3.17,17.28,9.52,23.75c6.35,6.48,14.14,9.71,23.37,9.71,9.87,0,19.55-4.17,29.04-12.5l6.73,9.81c-10.52,9.75-22.25,14.62-35.2,14.62s-24.24-4.33-33.47-12.98c-9.23-8.66-13.85-19.46-13.85-32.41s4.58-23.78,13.75-32.51c9.17-8.72,20.16-13.08,32.99-13.08,14.1,0,25.9,4.94,35.39,14.81Z"></path><path d="M958.06,677.63c9.04,8.91,13.56,19.65,13.56,32.22s-4.55,23.27-13.66,32.12c-9.11,8.85-19.94,13.27-32.51,13.27s-23.21-4.49-32.31-13.46c-9.11-8.97-13.66-19.62-13.66-31.93s4.55-23.3,13.66-32.22c9.1-8.91,19.88-13.37,32.31-13.37s23.56,4.46,32.6,13.37ZM902.56,686.39c-6.28,6.67-9.43,14.49-9.43,23.47s3.17,16.77,9.52,23.37c6.35,6.61,13.94,9.91,22.79,9.91s16.6-3.3,22.89-9.91c6.28-6.6,9.42-14.39,9.42-23.37s-3.11-17.12-9.33-23.66c-6.22-6.54-13.88-9.81-22.99-9.81s-16.61,3.34-22.89,10Z"></path><path d="M1126.07,699.08v53.86h-13.46v-49.24c0-7.82-1.86-14.33-5.58-19.52-3.72-5.19-9.36-7.79-16.93-7.79s-13.24,2.73-17.41,8.17c-4.17,5.45-6.25,12.02-6.25,19.71v48.66h-13.46v-49.24c0-7.82-1.63-14.33-4.91-19.52-3.27-5.19-8.56-7.79-15.87-7.79-7.69,0-13.75,2.92-18.18,8.75-4.42,5.84-6.64,12.73-6.64,20.68v47.12h-13.46v-86.17h13.46v12.31c7.31-9.87,16.67-14.81,28.08-14.81,6.28,0,11.89,1.51,16.83,4.52,4.94,3.01,8.56,7.34,10.87,12.98,7.05-11.67,16.99-17.5,29.81-17.5,10.26,0,18.34,3.27,24.24,9.81,5.9,6.54,8.85,14.88,8.85,25Z"></path><path d="M1285.91,699.08v53.86h-13.46v-49.24c0-7.82-1.86-14.33-5.58-19.52-3.72-5.19-9.36-7.79-16.93-7.79s-13.24,2.73-17.41,8.17c-4.17,5.45-6.25,12.02-6.25,19.71v48.66h-13.46v-49.24c0-7.82-1.63-14.33-4.91-19.52-3.27-5.19-8.56-7.79-15.87-7.79-7.69,0-13.75,2.92-18.18,8.75-4.42,5.84-6.64,12.73-6.64,20.68v47.12h-13.46v-86.17h13.46v12.31c7.31-9.87,16.67-14.81,28.08-14.81,6.28,0,11.89,1.51,16.83,4.52,4.94,3.01,8.56,7.34,10.87,12.98,7.05-11.67,16.99-17.5,29.81-17.5,10.26,0,18.34,3.27,24.24,9.81,5.9,6.54,8.85,14.88,8.85,25Z"></path><path d="M1391.7,666.77v86.17h-13.46v-12.12c-7.31,9.75-17.44,14.62-30.39,14.62-9.88,0-18.11-3.37-24.72-10.1-6.61-6.73-9.91-14.97-9.91-24.72v-53.86h13.46v49.24c0,8.08,2.24,14.65,6.73,19.72,4.49,5.07,10.71,7.6,18.66,7.6,7.05,0,12.98-2.31,17.79-6.92s7.6-10.51,8.37-17.7v-51.93h13.46Z"></path><path d="M1498.64,699.08v53.86h-13.46v-49.24c0-8.21-2.18-14.81-6.54-19.81-4.36-5-10.65-7.5-18.85-7.5s-14.14,2.73-18.95,8.17c-4.81,5.45-7.21,12.15-7.21,20.1v48.28h-13.46v-86.17h13.46v12.12c7.31-9.74,17.44-14.62,30.39-14.62,10,0,18.27,3.34,24.81,10,6.54,6.67,9.81,14.94,9.81,24.81Z"></path><path d="M1545.38,633.49c0,2.44-.84,4.52-2.5,6.25-1.67,1.73-3.78,2.6-6.35,2.6-2.31,0-4.36-.9-6.16-2.69-1.8-1.79-2.69-3.85-2.69-6.16,0-2.43.83-4.52,2.5-6.25,1.66-1.73,3.78-2.6,6.35-2.6s4.68.84,6.35,2.5c1.67,1.67,2.5,3.78,2.5,6.35ZM1543.26,666.77v86.17h-13.46v-86.17h13.46Z"></path><path d="M1596.73,633.3v33.47h26.93v12.12h-26.93v46.93c0,5.26,1.47,9.27,4.42,12.02,2.95,2.76,7.05,4.14,12.31,4.14,3.85,0,7.31-.45,10.39-1.35l.77,11.16c-4.23,1.41-8.85,2.12-13.85,2.12-7.95,0-14.52-2.43-19.72-7.31-5.19-4.87-7.79-11.28-7.79-19.23v-48.47h-15.58v-12.12h15.58v-33.47h13.46Z"></path><path d="M1665.2,633.49c0,2.44-.84,4.52-2.5,6.25-1.67,1.73-3.78,2.6-6.35,2.6-2.31,0-4.36-.9-6.16-2.69-1.8-1.79-2.69-3.85-2.69-6.16,0-2.43.83-4.52,2.5-6.25,1.66-1.73,3.78-2.6,6.35-2.6s4.68.84,6.35,2.5c1.67,1.67,2.5,3.78,2.5,6.35ZM1663.09,666.77v86.17h-13.46v-86.17h13.46Z"></path><path d="M1776.76,708.7c0,1.92-.13,3.91-.38,5.96h-74.05c.9,8.21,4.49,15,10.77,20.39,6.28,5.39,13.59,8.08,21.93,8.08,5.39,0,10.87-1.15,16.45-3.46,5.58-2.31,10.35-5.39,14.33-9.23l6.92,9.81c-10,10-22.5,15-37.51,15-12.95,0-24.04-4.36-33.28-13.08-9.23-8.72-13.85-19.43-13.85-32.12s4.49-23.5,13.46-32.41c8.97-8.91,19.75-13.37,32.31-13.37s22.54,4.33,30.68,12.98c8.14,8.66,12.21,19.14,12.21,31.45ZM1702.71,702.74h60.4c-1.41-7.69-4.75-14.01-10-18.95-5.26-4.93-11.67-7.41-19.24-7.41s-14.43,2.5-20.2,7.5c-5.77,5-9.42,11.29-10.96,18.85Z"></path><path d="M1857.93,673.31l-6.35,9.62c-6.41-4.74-14.17-7.12-23.27-7.12-4.88,0-9.33.87-13.37,2.6-4.04,1.73-6.06,4.71-6.06,8.94,0,3.46,1.67,6.16,5,8.08,3.08,1.92,8.21,3.91,15.39,5.96,8.72,2.44,14.68,4.3,17.89,5.58,11.03,4.23,16.54,11.35,16.54,21.35,0,6.03-2.05,11.16-6.16,15.39-4.1,4.23-8.88,7.21-14.33,8.94-5.45,1.73-11.13,2.6-17.02,2.6-6.54,0-13.15-1.28-19.81-3.85-6.67-2.56-12.25-6.09-16.73-10.58l7.31-9.23c3.33,3.59,7.72,6.44,13.18,8.56,5.45,2.12,10.74,3.17,15.87,3.17s10.64-1.22,16.16-3.65c5.51-2.43,8.27-5.96,8.27-10.58,0-4.87-3.72-8.53-11.16-10.96-1.03-.38-3.21-1.06-6.54-2.02-3.34-.96-6.09-1.76-8.27-2.4-3.98-1.15-7.34-2.28-10.1-3.37-2.76-1.09-5.67-2.56-8.75-4.42-3.08-1.86-5.42-4.23-7.02-7.12-1.6-2.88-2.4-6.25-2.4-10.1,0-8.08,3.2-14.17,9.62-18.27,6.41-4.1,13.85-6.16,22.31-6.16,10.9,0,20.84,3.01,29.81,9.04Z"></path></g></g></g></svg>